<?xml version="1.0" encoding="UTF-8"?>
<svg id="Layer_1" data-name="Layer 1" xmlns="http://www.w3.org/2000/svg" viewBox="0 0 334.51 469.1">
  <defs>
    <style>
      .cls-1 {
        fill: none;
        stroke: #be97c6;
        stroke-miterlimit: 10;
        stroke-width: 5px;
      }
    </style>
  </defs>
  <polygon class="cls-1" points="2.74 94.37 331.78 94.37 301.78 428.82 167.26 466.5 33.91 428.31 2.74 94.37"/>
  <polygon class="cls-1" points="128.16 23.66 128.16 2.5 70.62 2.5 70.62 64.69 128.16 64.69 128.16 44.56 95.13 44.56 95.13 23.66 128.16 23.66"/>
  <polygon class="cls-1" points="137.45 2.5 195.78 2.5 195.78 24.44 170.74 24.44 195.78 45.34 195.78 64.69 137.45 64.69 137.45 44.31 162.49 44.31 137.45 24.95 137.45 2.5"/>
  <polygon class="cls-1" points="205.32 2.5 263.64 2.5 263.64 24.44 238.61 24.44 263.64 45.34 263.64 64.69 205.32 64.69 205.32 44.31 230.35 44.31 205.32 24.95 205.32 2.5"/>
  <polygon class="cls-1" points="64.29 162.37 269.07 162.37 251.26 371.4 166.68 395.02 79.78 371.02 74.36 305.21 116.94 305.21 119.65 336.18 166.68 351.27 211.78 338.5 217.2 286.24 74.74 286.24 70.87 244.08 220.29 244.08 224.55 202.24 67.78 202.24 64.29 162.37"/>
</svg>