<?xml version="1.0" encoding="UTF-8"?>
<svg id="Layer_1" data-name="Layer 1" xmlns="http://www.w3.org/2000/svg" viewBox="0 0 411.85 615.23">
  <defs>
    <style>
      .cls-1 {
        fill: none;
        stroke: #be97c6;
        stroke-miterlimit: 10;
        stroke-width: 7px;
      }
    </style>
  </defs>
  <path class="cls-1" d="M97.03,3.5h219.04s.04,0,.06,0c110.67,15.51,134.66,178.03,0,202.83-.03,0-.05,0-.08,0h-108.46c-.22,0-.41.18-.41.41v313.87s0,.06,0,.09c-28.93,132.33-189.13,109.88-202.31-.02,0-.02,0-.03,0-.05-1.35-46.55,21.35-100.86,89.91-110.31.46-.06.46-.73,0-.8-63.7-9.7-91.91-61.42-89.91-106.93,5.48-58.68,38.58-88.38,92.91-95.77.48-.06.46-.75-.02-.8C-26.91,194.2-28.67,18.85,96.98,3.5c.02,0,.04,0,.05,0Z"/>
  <circle class="cls-1" cx="309.29" cy="308.31" r="96.94"/>
</svg>