<?xml version="1.0" encoding="UTF-8"?>
<svg id="Layer_1" data-name="Layer 1" xmlns="http://www.w3.org/2000/svg" viewBox="0 0 334.51 469.15">
  <defs>
    <style>
      .cls-1 {
        stroke-miterlimit: 10;
      }

      .cls-1, .cls-2 {
        fill: none;
        stroke: #be97c6;
        stroke-width: 5px;
      }
    </style>
  </defs>
  <g>
    <path class="cls-2" d="m33.91,2.74h20.9l.39,19.94,18.44.19V2.93l20.46-.39-.08,62.13h-20.38s0-21.76,0-21.76h-19.41l.19,21.37h-20.52V2.74Z"/>
    <path class="cls-2" d="m104.16,2.55h56.9l-.61,19.28-17.97.08-.19,42.77h-19.16l.23-42.39h-19.19V2.55Z"/>
    <path class="cls-2" d="m171.52,2.55h21.48l12.39,22.06,13.93-22.06h22.06v62.13h-20.71l-.19-31.06-14.71,22.35h0l-14.52-21.48v30.19h-19.74V2.55Z"/>
    <path class="cls-2" d="m251.84,2.55h20.13v41.03l29.81.19v20.9h-49.94V2.55Z"/>
  </g>
  <polygon class="cls-1" points="2.74 94.42 331.78 94.42 301.78 428.87 167.26 466.55 33.91 428.35 2.74 94.42"/>
  <polygon class="cls-1" points="64 162.03 270.87 162.03 267.26 202.81 109.32 202.81 112.94 244.13 263.65 244.13 251.84 371.58 167.44 395.32 82.49 371.58 77.32 306.03 118.62 306.03 121.71 338.03 167.44 351.97 213.07 339.06 218.23 286.42 75.26 286.42 64 162.03"/>
</svg>