<?xml version="1.0" encoding="UTF-8"?>
<svg id="Layer_1" data-name="Layer 1" xmlns="http://www.w3.org/2000/svg" viewBox="0 0 334.51 469.61">
  <defs>
    <style>
      .cls-1 {
        fill: none;
        stroke: #be97c6;
        stroke-miterlimit: 10;
        stroke-width: 5px;
      }
    </style>
  </defs>
  <polygon class="cls-1" points="2.74 94.89 331.78 94.89 301.78 429.34 167.26 467.02 33.91 428.82 2.74 94.89"/>
  <polygon class="cls-1" points="136.42 2.5 160.94 2.5 160.94 64.69 103.65 64.69 103.65 43.79 136.94 43.79 136.42 2.5"/>
  <polygon class="cls-1" points="171.78 2.5 229.84 2.5 229.84 25.21 204.81 25.21 229.84 45.34 229.84 64.69 171.78 64.69 171.78 45.34 196.81 45.34 171.78 24.95 171.78 2.5"/>
  <polygon class="cls-1" points="63.91 161.73 270.23 161.73 251.65 372.69 167.26 396.31 81.71 372.69 76.68 306.89 117.71 306.89 120.81 338.63 167.07 352.56 213.32 339.79 225.71 202.37 67 202.37 63.91 161.73"/>
</svg>