<?xml version="1.0" encoding="UTF-8"?>
<svg id="Layer_1" data-name="Layer 1" xmlns="http://www.w3.org/2000/svg" viewBox="0 0 365 365">
  <defs>
    <style>
      .cls-1 {
        stroke-width: 5px;
      }

      .cls-1, .cls-2 {
        fill: none;
        stroke: #be97c6;
        stroke-miterlimit: 10;
      }

      .cls-2 {
        stroke-width: 4px;
      }
    </style>
  </defs>
  <rect class="cls-1" x="2.5" y="2.5" width="360" height="360" rx="48" ry="48"/>
  <path class="cls-1" d="m85.47,255.02h28.39v-49.03h20.13c78.97-3.1,74.84-103.23,0-103.23h-48.52v152.26Z"/>
  <path class="cls-1" d="m113.34,128.05v54.45h22.71c24.23,0,32.89-39.33,8.91-51.54-3.95-2.01-8.36-2.92-12.79-2.92h-18.83Z"/>
  <path class="cls-2" d="m211.02,225.6c6.83,4.2,23.18,10.06,33.68,10.06,15.58,0,18.97-3.61,19.09-12.38s-20-14.59-34.83-22.46c-18.04-9.57-17.94-14.99-17.94-31.61,0-18.38,21.2-29.68,44.13-29.68,12.08,0,24.04,2.57,29.29,5.55l-.77,24.77c-3.85-2.1-17.58-8.26-28.26-8.26-16.1,0-18.43,4.78-18.03,11.64.48,8.1,10.79,10.32,27.06,16.62,19.95,7.7,25.42,18.55,25.42,35.87,0,18.2-16.53,31.04-44.36,31.04-11.38,0-28.18-2.07-34.48-6.27v-24.9Z"/>
  <text/>
</svg>