<?xml version="1.0" encoding="UTF-8"?>
<svg id="Layer_2" data-name="Layer 2" xmlns="http://www.w3.org/2000/svg" viewBox="0 0 160 160">
  <defs>
    <style>
      .cls-1 {
        fill: #686868;
      }

      .cls-1, .cls-2 {
        stroke-width: 0px;
      }

      .cls-2 {
        fill: #be97c6;
      }
    </style>
  </defs>
  <g id="Layer_2-2" data-name="Layer 2">
    <g id="GetHub_Icon" data-name="GetHub Icon">
      <circle class="cls-1" cx="80" cy="80" r="80"/>
      <circle class="cls-2" cx="80" cy="80" r="34.16"/>
      <path class="cls-1" d="M70.89,99.69c-3.36,1.15-7.72-1.45-9.83-6.65-.31-.77-1.03-1.35-1.86-1.4-1.24-.07-1.7.89-1.07,3.31,1.35,3.83,3.36,6.66,5.77,8.24.98.65,2.15.95,3.33.95h3.66s0-4.45,0-4.45"/>
      <path class="cls-1" d="M70.89,112.93v-18.24c-4.34-1.48-8.85-5.16-9.63-8.65-1.1-4.65-.32-13.42,0-15.23v-11.74h6.06v2.71c4.65,2.45,21.42,2.58,24.77,0v-2.71s5.55,0,5.55,0c1.81,10.84,1.66,20.2,0,26.93-.79,2.97-4.87,5.95-8.92,8.92l-.09,18.14c-5.8,1.54-11.72,1.44-17.74-.13"/>
    </g>
  </g>
</svg>