<?xml version="1.0" encoding="UTF-8"?>
<svg id="Layer_2" data-name="Layer 2" xmlns="http://www.w3.org/2000/svg" viewBox="0 0 720 432.06">
  <defs>
    <style>
      .cls-1 {
        fill: #fff;
        stroke-width: 0px;
      }
    </style>
  </defs>
  <g id="Primary">
    <g id="Outter_Brackets" data-name="Outter Brackets">
      <polygon class="cls-1" points="720 216.06 631.35 .06 575.06 .06 660.77 216.48 575.06 432.06 630.58 432.06 720 216.06"/>
      <polygon class="cls-1" points="0 216.06 88.65 .06 142.94 .06 59.23 216.48 142.94 432.06 89.42 432.06 0 216.06"/>
    </g>
    <g id="E">
      <path class="cls-1" d="M326.2,242.11h-117.74v134.9h133.08v54.92h-189.01V0h188.88v55.52h-132.95v135.26h117.74v51.33h0Z"/>
    </g>
    <g id="K">
      <polygon id="Slash" class="cls-1" points="350.9 432.06 467 .06 516.19 .06 399.32 432.06 350.9 432.06"/>
      <polygon id="K_Bottom" data-name="K Bottom" class="cls-1" points="452.14 286.37 464.3 243.8 504 243.8 584.24 368.5 563.89 415.58 452.14 286.37"/>
      <polygon id="K_Top" data-name="K Top" class="cls-1" points="476.97 189.09 491.96 137.5 579.76 51.29 598.52 97.39 515.38 189.09 476.97 189.09"/>
    </g>
  </g>
</svg>