<?xml version="1.0" encoding="UTF-8"?>
<svg id="Layer_2" data-name="Layer 2" xmlns="http://www.w3.org/2000/svg" viewBox="0 0 702.31 148.24">
  <defs>
    <style>
      .cls-1 {
        fill: #fff;
        stroke-width: 0px;
      }
    </style>
  </defs>
  <g id="Secondary">
    <g id="K">
      <polygon id="Slash" class="cls-1" points="120.39 148.24 160.23 .02 177.1 .02 137.01 148.24 120.39 148.24"/>
      <polygon id="K_Bottom" data-name="K Bottom" class="cls-1" points="155.13 98.25 159.3 83.65 172.92 83.65 200.45 126.43 193.47 142.58 155.13 98.25"/>
      <polygon id="K_Top" data-name="K Top" class="cls-1" points="163.65 64.88 168.79 47.17 198.91 17.6 205.35 33.42 176.83 64.88 163.65 64.88"/>
    </g>
    <g id="E">
      <path class="cls-1" d="M111.92,83.07h-40.4v46.28h45.66v18.84H52.33V0h64.8v19.05h-45.61v46.41h40.4v17.61Z"/>
    </g>
    <g id="Outter_Brackets" data-name="Outter Brackets">
      <polygon class="cls-1" points="247.03 74.13 216.62 .02 197.3 .02 226.71 74.27 197.3 148.24 216.35 148.24 247.03 74.13"/>
      <polygon class="cls-1" points="0 74.13 30.41 .02 49.04 .02 20.32 74.27 49.04 148.24 30.68 148.24 0 74.13"/>
    </g>
    <g>
      <path class="cls-1" d="M305.51,46h-30.27v14.08h33.57l-1.33,9.01h-43.37V16.13h43.02v9.01h-31.89v11.85h30.27v9.01Z"/>
      <path class="cls-1" d="M323.17,30.6c4.71,12.96,9.61,24.61,10.98,29.17h.13c1.3-4.32,3.93-11.46,10.84-29.17h10.82l-16.21,38.5h-11.79l-16.2-38.5h11.43Z"/>
      <path class="cls-1" d="M397.36,58.71c0,4.61.22,9.54.32,10.39h-10.04c-.3-1.07-.4-3.61-.45-4.75-2.06,3.54-6.47,5.8-13.99,5.8-10.64,0-14.81-6.47-14.81-12.5,0-10.03,8.88-12.81,20.11-12.81h8.48v-1.48c0-3.46-1.5-6.43-7.95-6.43-5.93,0-7.27,2.38-7.85,5h-10.61c.37-4.86,3.74-12.38,18.33-12.38,15.86,0,18.47,7.55,18.47,13.96v15.2ZM386.98,51.72c-.98-.05-3.61-.05-8.28-.05-7.02,0-10,1.73-10,5.43,0,2.92,2.28,5.33,7.32,5.33,7.79,0,10.96-3.98,10.96-9.77v-.94Z"/>
      <path class="cls-1" d="M408.57,40.31c0-3.25,0-6.92-.08-9.71h10.36c.15,1.16.28,3.76.33,5.65,1.73-2.99,5.41-6.7,13.14-6.7,9.34,0,15.03,5.78,15.03,15.9v23.65h-10.72v-21.91c0-5.01-1.93-9.25-7.94-9.25-6.42,0-9.47,4.62-9.47,12.19v18.97h-10.67v-28.79Z"/>
      <path class="cls-1" d="M480.64,16.13h11.12v24.11c7.79-7,16.94-14.98,27.01-24.11h13.79l-25.53,22.77,26.99,30.2h-13.98l-21.06-24.12-7.23,5.94v18.18h-11.12V16.13Z"/>
      <path class="cls-1" d="M539.35,41.06c0-3.48,0-6.98-.08-10.46h10.36c.18,1.29.33,5.48.33,8,2.26-5.33,7.24-9.16,15.07-9v9.77c-8.75-.13-15.07,3.94-15.07,15.03v14.7h-10.61v-28.04Z"/>
      <path class="cls-1" d="M607.36,58.71c0,4.61.22,9.54.32,10.39h-10.04c-.3-1.07-.4-3.61-.45-4.75-2.06,3.54-6.47,5.8-13.99,5.8-10.64,0-14.81-6.47-14.81-12.5,0-10.03,8.88-12.81,20.12-12.81h8.48v-1.48c0-3.46-1.5-6.43-7.95-6.43-5.93,0-7.27,2.38-7.85,5h-10.61c.37-4.86,3.74-12.38,18.33-12.38,15.86,0,18.47,7.55,18.47,13.96v15.2ZM596.98,51.72c-.98-.05-3.61-.05-8.28-.05-7.02,0-10,1.73-10,5.43,0,2.92,2.28,5.33,7.32,5.33,7.79,0,10.96-3.98,10.96-9.77v-.94Z"/>
      <path class="cls-1" d="M656.23,57.88c0,3.73-.05,7.49.02,11.21h-10.34c-.15-1.05-.2-3.12-.25-5.13-1.93,3.45-5.02,6.18-13.21,6.18s-14.38-4.62-14.38-15.92v-23.63h10.61v21.84c0,5.34,2,9.3,7.65,9.3,6.66,0,9.29-3.9,9.29-13.46v-17.67h10.61v27.28Z"/>
      <path class="cls-1" d="M674.31,57.32c1.1,3.32,4.1,5.4,9.85,5.4s7.7-1.92,7.7-4.25c0-2.49-1.76-3.9-10.12-4.99-14.31-1.95-16.51-7.15-16.51-11.88,0-5.56,4.28-12.05,17.31-12.05s17.95,6.55,18.46,11.79h-10.5c-.55-1.97-1.99-4.57-8.39-4.57-5.4,0-6.44,2.17-6.44,3.8,0,2,1.42,3.21,9.1,4.3,15.26,2.23,17.53,7.23,17.53,12.69,0,6.99-5.31,12.59-18.85,12.59-10.75,0-18.46-4.54-19.7-12.83h10.55Z"/>
    </g>
    <g>
      <path class="cls-1" d="M302.5,80.29h19.45v3.04h-15.84v8.33h14.77v3.08h-14.77v11.13h-3.61v-25.57Z"/>
      <path class="cls-1" d="M325.27,92.6c0-1.64,0-3.31-.04-4.95h3.33c.06.54.13,2.45.13,4.1,1.18-2.79,3.82-4.63,7.37-4.59v3.28c-4.19-.05-7.37,2.47-7.37,7.83v7.6h-3.42v-13.26Z"/>
      <path class="cls-1" d="M357.43,96.75c0,5.06-3.27,9.62-9.81,9.62-6.16,0-9.6-4.56-9.6-9.59s3.65-9.63,9.78-9.63,9.64,4.79,9.64,9.61ZM341.52,96.77c0,3.46,2.21,6.79,6.21,6.79s6.17-3.11,6.17-6.75-2.2-6.86-6.25-6.86-6.13,3.17-6.13,6.82Z"/>
      <path class="cls-1" d="M361.9,92.24c0-1.54,0-3.24-.04-4.59h3.33c.07.63.12,2.13.13,3.37.79-1.75,2.69-3.87,6.6-3.87,4.28,0,7.05,2.63,7.05,7.63v11.09h-3.45v-10.47c0-3-1.15-5.37-4.54-5.37-3.79,0-5.65,2.89-5.65,7.11v8.73h-3.43v-13.62Z"/>
      <path class="cls-1" d="M382.06,87.64h3.62v-5.86h3.43v5.86h4.75v2.7h-4.75v9.97c0,2.09.53,3.02,2.52,3.02.53,0,1.26-.02,1.79-.16v2.52c-.82.29-1.77.33-2.82.33-3.77,0-4.92-1.68-4.92-5.27v-10.41h-3.62v-2.7Z"/>
      <path class="cls-1" d="M399.52,97.55c.19,3.5,2.55,6.06,6.24,6.06,2.85,0,4.42-1.16,5.4-2.93h3.42c-.98,2.71-3.56,5.69-9,5.69-6.53,0-9.5-4.77-9.5-9.56,0-5.5,3.66-9.67,9.41-9.67,6.92,0,9.35,5.06,9.35,9.51,0,.31,0,.55-.01.9h-15.31ZM411.28,95.11c-.16-2.17-1.31-5.31-5.81-5.31-3.73,0-5.56,2.33-5.88,5.31h11.68Z"/>
      <path class="cls-1" d="M419.32,92.24c0-1.54,0-3.24-.04-4.59h3.33c.07.63.12,2.13.13,3.37.79-1.75,2.69-3.87,6.6-3.87,4.28,0,7.05,2.63,7.05,7.63v11.09h-3.45v-10.47c0-3-1.15-5.37-4.54-5.37-3.79,0-5.65,2.89-5.65,7.11v8.73h-3.43v-13.62Z"/>
      <path class="cls-1" d="M459.82,78.8v21.77c0,1.75,0,3.54.04,5.29h-3.33c-.1-.77-.13-1.87-.14-2.77-.92,1.55-2.47,3.28-6.69,3.28-5.27,0-8.83-3.94-8.83-9.46,0-5.99,4.51-9.76,9.26-9.76,4.27,0,5.75,1.94,6.26,2.8v-11.15h3.44ZM444.4,96.83c0,3.36,2.04,6.67,6.02,6.67,4.34,0,6.12-2.79,6.12-6.82s-1.42-6.69-6-6.69c-4.14,0-6.14,3.39-6.14,6.84Z"/>
      <path class="cls-1" d="M477,80.29h10.51c8.26,0,13.08,5.38,13.08,12.37,0,8.2-5.77,13.2-13.15,13.2h-10.44v-25.57ZM480.62,102.87h6.1c6.77,0,10.04-4.25,10.04-10.1s-3.82-9.47-9.76-9.5h-6.38v19.59Z"/>
      <path class="cls-1" d="M507.81,97.55c.19,3.5,2.55,6.06,6.24,6.06,2.85,0,4.42-1.16,5.4-2.93h3.42c-.98,2.71-3.56,5.69-9,5.69-6.53,0-9.5-4.77-9.5-9.56,0-5.5,3.66-9.67,9.41-9.67,6.92,0,9.35,5.06,9.35,9.51,0,.31,0,.55-.01.9h-15.31ZM519.56,95.11c-.16-2.17-1.31-5.31-5.81-5.31-3.73,0-5.56,2.33-5.88,5.31h11.68Z"/>
      <path class="cls-1" d="M528.68,87.64c1.66,4.19,5.62,13.1,6.3,15.06h.05c.5-1.55,1.72-4.63,6.19-15.06h3.51l-7.97,18.22h-3.74l-8.05-18.22h3.72Z"/>
      <path class="cls-1" d="M549.89,97.55c.19,3.5,2.55,6.06,6.24,6.06,2.85,0,4.42-1.16,5.4-2.93h3.42c-.98,2.71-3.56,5.69-9,5.69-6.53,0-9.5-4.77-9.5-9.56,0-5.5,3.66-9.67,9.41-9.67,6.92,0,9.35,5.06,9.35,9.51,0,.31,0,.55-.01.9h-15.31ZM561.65,95.11c-.16-2.17-1.31-5.31-5.81-5.31-3.73,0-5.56,2.33-5.88,5.31h11.68Z"/>
      <path class="cls-1" d="M569.58,105.86v-27.06h3.42v27.06h-3.42Z"/>
      <path class="cls-1" d="M596.9,96.75c0,5.06-3.27,9.62-9.81,9.62-6.16,0-9.6-4.56-9.6-9.59s3.65-9.63,9.78-9.63,9.64,4.79,9.64,9.61ZM580.99,96.77c0,3.46,2.21,6.79,6.21,6.79s6.17-3.11,6.17-6.75-2.2-6.86-6.25-6.86-6.13,3.17-6.13,6.82Z"/>
      <path class="cls-1" d="M604.81,103.17v10.68h-3.42v-21.65c0-1.51,0-3.04-.04-4.55h3.34c.07.52.12,1.75.12,3.14,1.07-1.91,3.2-3.64,7.01-3.64,4.91,0,8.49,4.02,8.49,9.29,0,5.95-4.12,9.93-9.06,9.93-3.77,0-5.45-1.64-6.44-3.2ZM616.77,96.58c0-3.24-1.87-6.56-5.97-6.56s-6.09,2.99-6.09,6.81,2,6.63,6.02,6.63,6.04-3.24,6.04-6.89Z"/>
      <path class="cls-1" d="M626.86,97.55c.19,3.5,2.55,6.06,6.24,6.06,2.85,0,4.42-1.16,5.4-2.93h3.42c-.98,2.71-3.56,5.69-9,5.69-6.53,0-9.5-4.77-9.5-9.56,0-5.5,3.66-9.67,9.41-9.67,6.92,0,9.35,5.06,9.35,9.51,0,.31,0,.55-.01.9h-15.31ZM638.61,95.11c-.16-2.17-1.31-5.31-5.81-5.31-3.73,0-5.56,2.33-5.88,5.31h11.68Z"/>
      <path class="cls-1" d="M646.67,92.6c0-1.64,0-3.31-.04-4.95h3.33c.06.54.13,2.45.13,4.1,1.18-2.79,3.82-4.63,7.37-4.59v3.28c-4.19-.05-7.37,2.47-7.37,7.83v7.6h-3.42v-13.26Z"/>
    </g>
  </g>
</svg>